<svg width="88" height="30" viewBox="0 0 88 30" fill="none" xmlns="http://www.w3.org/2000/svg">
<path d="M85.1168 18.907H87.6388V21H80.0078V18.907H82.6728V9.17004H80.0078V7.07703H85.1168V18.907ZM82.2958 0.811035H85.2858V3.91804H82.2958V0.811035Z" fill="#20068C"/>
<path d="M73.0282 18.9071H75.5892V21.0001H67.9062V18.9071H70.5842V9.17014H67.9062V7.07714H73.0282V18.9071ZM78.0983 9.71614C77.9163 9.66414 77.7256 9.62514 77.5262 9.59914C77.3356 9.57314 77.1406 9.56014 76.9412 9.56014C75.7539 9.56014 74.8049 9.98481 74.0942 10.8341C73.3836 11.6835 73.0282 12.8665 73.0282 14.3831L72.4823 11.2761H73.1322C73.2449 10.3055 73.4832 9.49514 73.8472 8.84514C74.2112 8.18647 74.6836 7.69247 75.2642 7.36314C75.8449 7.03381 76.5123 6.86914 77.2663 6.86914C77.4136 6.86914 77.5523 6.87781 77.6823 6.89514C77.8209 6.90381 77.9596 6.92114 78.0983 6.94714V9.71614Z" fill="#20068C"/>
<path d="M59.6198 21.2599C58.1551 21.2599 56.8898 20.9566 55.8238 20.3499C54.7578 19.7346 53.9388 18.8896 53.3668 17.8149C52.7948 16.7316 52.5088 15.4879 52.5088 14.0839C52.5088 12.6712 52.7991 11.4189 53.3798 10.3269C53.9605 9.22623 54.7751 8.36823 55.8238 7.75289C56.8725 7.12889 58.0945 6.81689 59.4898 6.81689C60.9025 6.81689 62.1201 7.12456 63.1428 7.73989C64.1741 8.35523 64.9628 9.20889 65.5088 10.3009C66.0635 11.3929 66.3408 12.6539 66.3408 14.0839C66.3408 14.2919 66.3365 14.4566 66.3278 14.5779C66.3191 14.6906 66.3061 14.7859 66.2888 14.8639H63.8708C63.8881 14.7339 63.9011 14.5952 63.9098 14.4479C63.9185 14.2919 63.9228 14.1099 63.9228 13.9019C63.9228 12.9572 63.7451 12.1209 63.3898 11.3929C63.0431 10.6562 62.5405 10.0756 61.8818 9.6509C61.2231 9.22623 60.4258 9.01389 59.4898 9.01389C58.5885 9.01389 57.7998 9.23056 57.1238 9.66389C56.4478 10.0886 55.9191 10.6822 55.5378 11.4449C55.1651 12.2076 54.9788 13.0872 54.9788 14.0839C54.9788 15.0459 55.1608 15.8996 55.5248 16.6449C55.8975 17.3816 56.4261 17.9622 57.1108 18.3869C57.8041 18.8029 58.6318 19.0109 59.5938 19.0109C60.5905 19.0109 61.4441 18.7812 62.1548 18.3219C62.8741 17.8539 63.4028 17.2169 63.7408 16.4109L66.0548 17.2819C65.5521 18.5126 64.7331 19.4832 63.5978 20.1939C62.4625 20.9046 61.1365 21.2599 59.6198 21.2599ZM54.0558 14.8639V13.0049H65.5608L66.2888 14.8639H54.0558Z" fill="#20068C"/>
<path d="M42.3723 26.72C40.8383 26.72 39.5383 26.4254 38.4723 25.836C37.415 25.2467 36.5786 24.3584 35.9633 23.171L38.0303 22.079C38.455 22.859 39.0226 23.4527 39.7333 23.86C40.444 24.2673 41.302 24.471 42.3073 24.471C43.278 24.471 44.11 24.2804 44.8033 23.899C45.5053 23.5264 46.0426 22.976 46.4153 22.248C46.7966 21.5287 46.9873 20.6577 46.9873 19.635V15.774L47.0653 14.591V12.979L46.9873 10.73V7.07701H51.3553V9.17002H49.4313V19.635C49.4313 21.1517 49.154 22.4344 48.5993 23.483C48.0446 24.5404 47.243 25.342 46.1943 25.888C45.1456 26.4427 43.8716 26.72 42.3723 26.72ZM42.2163 6.79102C43.3083 6.79102 44.2876 7.02502 45.1543 7.49302C46.0296 7.96102 46.762 8.64135 47.3513 9.53402C47.9493 10.4267 48.374 11.5143 48.6253 12.797L47.0653 13.993C47.0653 13.0137 46.8833 12.147 46.5193 11.393C46.164 10.639 45.644 10.0497 44.9593 9.62502C44.2833 9.20035 43.46 8.98802 42.4893 8.98802C41.5446 8.98802 40.73 9.20468 40.0453 9.63802C39.3606 10.0627 38.8363 10.6563 38.4723 11.419C38.1083 12.173 37.9263 13.0483 37.9263 14.045C37.9263 15.033 38.117 15.9083 38.4983 16.671C38.8796 17.425 39.4126 18.0187 40.0973 18.452C40.782 18.8767 41.5793 19.089 42.4893 19.089C43.4426 19.089 44.2573 18.8767 44.9333 18.452C45.618 18.0187 46.1423 17.4207 46.5063 16.658C46.879 15.8867 47.0653 14.9983 47.0653 13.993L47.4553 17.217H46.8833C46.71 18.0143 46.4153 18.7207 45.9993 19.336C45.5833 19.9427 45.0373 20.4194 44.3613 20.766C43.6853 21.1127 42.8793 21.286 41.9433 21.286C40.99 21.286 40.1146 21.1083 39.3173 20.753C38.52 20.3977 37.8266 19.895 37.2373 19.245C36.6566 18.595 36.206 17.828 35.8853 16.944C35.5646 16.06 35.4043 15.0937 35.4043 14.045C35.4043 12.6237 35.6816 11.367 36.2363 10.275C36.7996 9.18302 37.5883 8.32935 38.6023 7.71402C39.625 7.09868 40.8296 6.79102 42.2163 6.79102Z" fill="#20068C"/>
<path d="M23.5766 7.28758H20.8123V4.14404H17.8279V7.28758V7.30607H14.8783V10.4034L14.7913 10.4311H11.8331V10.4034V7.30607H8.85739V7.28758V4.14404H5.87303V7.28758H2.92346V10.3849H0V13.5007V13.5932V16.6627H2.94956V19.8433H5.87303H5.93393V23.0053H8.8835V26.1303H11.8505V29.2924H14.8348V26.1211H17.8105V22.996H20.7775V19.8433H20.821H23.7444V16.6627H26.7201V19.8433L26.7157 16.672V10.4311L23.5766 10.4311V7.28758ZM17.7757 22.8943V22.9683ZM8.927 22.9683V22.8943Z" fill="#20068C"/>
<rect x="25.1475" y="5.71533" width="3.14354" height="3.14354" fill="#20068C"/>
<rect x="28.292" y="12.0024" width="3.14354" height="3.14354" fill="#20068C"/>
<rect x="25.1475" y="18.2891" width="3.14354" height="3.14354" fill="#20068C"/>
<rect x="28.292" y="1" width="3.14354" height="3.14354" fill="#20068C"/>
</svg>
