<svg width="213" height="123" viewBox="0 0 213 123" fill="none" xmlns="http://www.w3.org/2000/svg">
<rect x="139" y="116" width="7" height="7" fill="#E51E56"/>
<rect x="206" y="116" width="7" height="7" fill="#E51E56"/>
<rect x="116" y="116" width="8" height="7" fill="#E51E56"/>
<rect x="183" y="116" width="8" height="7" fill="#E51E56"/>
<rect x="94" y="116" width="7" height="7" fill="#E51E56"/>
<rect x="161" y="116" width="7" height="7" fill="#E51E56"/>
<path d="M75.2143 88.9157V82.0699H82.0634V75.2352H88.9126V68.3894H95.758V75.2352H102.607V68.3894H109.458V61.5547H102.607H95.758V54.7089V47.8742H102.607H109.458H116.313V41.0414H109.458H102.607V34.1956H109.458H116.313H123.16H130V27.3609V20.5151V13.6805V6.83468H123.156V0H116.309H109.454H102.603H95.7543H88.9089H82.0597H75.2143V6.83468H68.3651V13.6805V20.5151V27.3609V34.1956V41.0414H61.5216V47.8761H54.6669V54.7108H47.8233V61.5566H40.9686V68.2633V68.3894H34.125H27.3966H27.2703H20.5419V61.5547H13.6983V54.7089H6.84357V47.8742V41.0414H0V47.8761V54.7108V61.5566V68.3912H6.84357V75.237H13.6983V82.0717H20.5419V88.9175H27.2703V95.6372H34.125V95.7522V102.472H40.9686H41.0076V109.32V116.154V123H47.8511H54.7059V116.154H47.8511V109.32V102.611H54.6687V95.7652H61.5234V102.611H68.367V109.32V116.154H68.328V123H75.1827H82.0263V116.154H75.2143V109.32V102.611V102.47V95.7633V88.9286M82.0634 27.3609V20.5151H88.9126V27.3609H82.0634Z" fill="#20068C"/>
</svg>
